<mxfile host="app.diagrams.net" modified="2023-12-06T09:44:32.949Z" agent="Mozilla/5.0 (Macintosh; Intel Mac OS X 10_15_7) AppleWebKit/537.36 (KHTML, like Gecko) Chrome/119.0.0.0 Safari/537.36" version="22.1.5" etag="Wb9cqVBODGiS_T4dxflU" type="github">
  <diagram name="第 1 页" id="xc_HBrGEXmLp3JL7r-gg">
    <mxGraphModel>
      <root>
        <mxCell id="0" />
        <mxCell id="1" parent="0" />
      </root>
    </mxGraphModel>
  </diagram>
</mxfile>
